<svg xmlns="http://www.w3.org/2000/svg" height="16" viewBox="-4 -4 20 20">
  <path
    d="M15.662,8.286 L15.662,8.286 C16.0386551,8.68764165 16.0382172,9.31288627 15.661,9.714 L8.762,16.713 C8.5752629,16.9019544 8.3206586,17.0082962 8.055,17.0082962 C7.7893414,17.0082962 7.5347371,16.9019544 7.348,16.713 C6.95708526,16.3172596 6.95708526,15.6807404 7.348,15.285 L13.544,9 L7.348,2.715 C6.95708526,2.31925963 6.95708526,1.68274037 7.348,1.287 C7.5347371,1.09804564 7.7893414,0.9917038 8.055,0.9917038 C8.3206586,0.9917038 8.5752629,1.09804564 8.762,1.287 L15.662,8.286 Z M8.662,8.286 L8.662,8.286 C9.03865509,8.68764165 9.03821725,9.31288627 8.661,9.714 L1.762,16.713 C1.5752629,16.9019544 1.3206586,17.0082962 1.055,17.0082962 C0.789341397,17.0082962 0.534737098,16.9019544 0.348,16.713 C-0.0429147392,16.3172596 -0.0429147392,15.6807404 0.348,15.285 L6.544,9 L0.349,2.715 C-0.0419147392,2.31925963 -0.0419147392,1.68274037 0.349,1.287 C0.535737098,1.09804564 0.790341397,0.9917038 1.056,0.9917038 C1.3216586,0.9917038 1.5762629,1.09804564 1.763,1.287 L8.662,8.286 Z"
    transform="translate(0 -1)"/>
</svg>
