<svg viewBox="0 0 1024 1404.416" xmlns="http://www.w3.org/2000/svg"><path d="M170.667 312.384h682.667q53 0 90.5 37.5t37.5 90.5v682.667q0 53-37.5 90.5t-90.5 37.5h-682.667q-53 0-90.5-37.5t-37.5-90.5v-682.667q0-53 37.5-90.5t90.5-37.5z m682.6659999999999 85.33299999999997h-682.667q-17.667 0-30.167 12.5t-12.5 30.167v682.667q0 17.667 12.5 30.167t30.167 12.5h682.667q17.667 0 30.167-12.5t12.5-30.167v-682.667q0-17.667-12.5-30.167t-30.167-12.5z m-341.33299999999997 170.66700000000003q17.667 0 30.167 12.5t12.5 30.167v128h128q17.667 0 30.167 12.5t12.5 30.167-12.5 30.167-30.167 12.5h-128v128q0 17.667-12.5 30.167t-30.167 12.5-30.167-12.5-12.5-30.167v-128h-128q-17.667 0-30.167-12.5t-12.5-30.167 12.5-30.167 30.167-12.5h128v-128q0-17.667 12.5-30.167t30.167-12.5z"/></svg>