<svg xmlns="http://www.w3.org/2000/svg" viewBox="-4 -4 20 24">
  <path d="M7.413,11.003 L15.606,2.718 C15.9970325,2.32191847 15.9970325,1.68508153 15.606,1.289 C15.4192629,1.10004564 15.1646586,0.9937038 14.899,0.9937038 C14.6333414,0.9937038 14.3787371,1.10004564 14.192,1.289 L5.292,10.288 C4.91053832,10.6875751 4.91053832,11.3164249 5.292,11.716 L14.192,20.715 C14.583,21.109 15.216,21.109 15.606,20.715 C15.996,20.321 15.997,19.681 15.606,19.287 L7.413,11.003 L7.413,11.003 Z M1,0.988 C0.44771525,0.988 0,1.43571525 0,1.988 L0,19.988 C0,20.5402847 0.44771525,20.988 1,20.988 C1.55228475,20.988 2,20.5402847 2,19.988 L2,1.988 C2,1.43571525 1.55228475,0.988 1,0.988 L1,0.988 Z" transform="translate(0 -1)"/>
</svg>
