<svg xmlns="http://www.w3.org/2000/svg" viewBox="-4 -4 20 20">
  <path d="M2.456,9 L8.653,15.286 C9.04391474,15.6817404 9.04391474,16.3182596 8.653,16.714 C8.4662629,16.9029544 8.2116586,17.0092962 7.946,17.0092962 C7.6803414,17.0092962 7.4257371,16.9029544 7.239,16.714 L0.339,9.715 C-0.038,9.334 -0.036,8.665 0.339,8.286 L7.238,1.287 C7.4247371,1.09804564 7.6793414,0.9917038 7.945,0.9917038 C8.2106586,0.9917038 8.4652629,1.09804564 8.652,1.287 C9.04291474,1.68274037 9.04291474,2.31925963 8.652,2.715 L2.456,9 Z M9.456,9 L15.652,15.286 C16.0429147,15.6817404 16.0429147,16.3182596 15.652,16.714 C15.4652629,16.9029544 15.2106586,17.0092962 14.945,17.0092962 C14.6793414,17.0092962 14.4247371,16.9029544 14.238,16.714 L7.339,9.715 C6.962,9.334 6.964,8.665 7.339,8.286 L14.238,1.287 C14.4247371,1.09804564 14.6793414,0.9917038 14.945,0.9917038 C15.2106586,0.9917038 15.4652629,1.09804564 15.652,1.287 C16.0429147,1.68274037 16.0429147,2.31925963 15.652,2.715 L9.456,9 Z" transform="translate(0 -1)"/>
</svg>
