<svg xmlns="http://www.w3.org/2000/svg" viewBox="-4 -4 21 24">
  <path d="M1.822,0.302 C1.6352629,0.113045642 1.3806586,0.0067037999 1.115,0.0067037999 C0.849341397,0.0067037999 0.594737098,0.113045642 0.408,0.302 C0.0167776169,0.696834585 0.0167776169,1.33316541 0.408,1.728 L8.601,10 L0.408,18.272 C0.017,18.666 0.017,19.304 0.408,19.698 C0.799,20.092 1.432,20.092 1.822,19.698 L10.721,10.713 C10.9271862,10.5056993 11.0295755,10.2168808 11,9.926 C10.9832827,9.68695041 10.8847599,9.46094822 10.721,9.286 L1.822,0.302 Z M15.016,0.003 C14.4637153,0.003 14.016,0.45071525 14.016,1.003 L14.016,18.972 C14.016,19.5242847 14.4637153,19.972 15.016,19.972 C15.5682847,19.972 16.016,19.5242847 16.016,18.972 L16.016,1.003 C16.016,0.45071525 15.5682847,0.003 15.016,0.003 Z"/>
</svg>
