<svg xmlns="http://www.w3.org/2000/svg" viewBox="0 0 160 100">
  <path fill="#000000"
        d="M0,50 C0,43.2291353 1.32813255,36.7577762 3.98439764,30.5859223 C6.64066274,24.4140685 10.195353,19.1015839 14.6484685,14.6484685 C19.1015839,10.195353 24.4140685,6.64066274 30.5859223,3.98439764 C36.7577762,1.32813255 43.2291353,7.77156725e-15 50,0 L110.000027,0 C116.770892,0 123.242251,1.32813255 129.414105,3.98439764 C135.585959,6.64066274 140.898444,10.195353 145.351559,14.6484685 C149.804674,19.1015839 153.359364,24.4140685 156.01563,30.5859223 C158.671895,36.7577762 160.000027,43.2291353 160.000027,50 C160.000027,56.7708647 158.671895,63.2422238 156.01563,69.4140777 C153.359364,75.5859315 149.804674,80.8984161 145.351559,85.3515315 C140.898444,89.8046469 135.585959,93.3593372 129.414105,96.0156024 C123.242251,98.6718675 116.770892,100 110.000027,100 L50,100 C43.2291353,100 36.7577762,98.6718675 30.5859223,96.0156024 C24.4140685,93.3593372 19.1015839,89.8046469 14.6484685,85.3515315 C10.195353,80.8984161 6.64066274,75.5859315 3.98439764,69.4140777 C1.32813255,63.2422238 0,56.7708647 0,50 L0,50 Z M110.000027,89.9999727 C115.416737,89.9999727 120.586032,88.9452779 125.507911,86.8358882 C130.429789,84.7264984 134.687625,81.8749532 138.281417,78.2812526 C141.875208,74.6875519 144.726754,70.4297165 146.836052,65.5077465 C148.945351,60.5857765 150.000045,55.4164821 150.000137,49.9998633 C150.000228,44.5832444 148.945533,39.4139501 146.836052,34.4919801 C144.726572,29.57001 141.875027,25.3121747 138.281417,21.718474 C134.687807,18.1247733 130.429972,15.2732281 125.507911,13.1638384 C120.585849,11.0544487 115.416555,9.99975391 110.000027,9.99975391 C104.5835,9.99975391 99.4142052,11.0544487 94.4921441,13.1638384 C89.570083,15.2732281 85.3122477,18.1247733 81.7186381,21.718474 C78.1250284,25.3121747 75.2734832,29.57001 73.1640025,34.4919801 C71.0545217,39.4139501 69.9998268,44.5832444 69.999918,49.9998633 C70.0000092,55.4164821 71.0547039,60.5857765 73.1640025,65.5077465 C75.273301,70.4297165 78.1248462,74.6875519 81.7186381,78.2812526 C85.3124299,81.8749532 89.5702653,84.7264984 94.4921441,86.8358882 C99.414023,88.9452779 104.583317,89.9999727 110.000027,89.9999727 Z"/>
</svg>
