<svg xmlns="http://www.w3.org/2000/svg" viewBox="0 0 136 85">
  <path fill="#000000" d="M76.4999768,42.5 C76.4999768,37.8957965 75.6034861,33.5018963 73.8105049,29.3182993 C72.0175237,25.1347023 69.5937103,21.5155422 66.5390647,18.4608191 C63.4844191,15.406096 59.865259,12.9822826 55.6815845,11.1893789 C51.49791,9.39647511 47.1040098,8.49998451 42.4998838,8.49990703 C37.8957578,8.49982956 33.5018576,9.39632017 29.3181831,11.1893789 C25.1345086,12.9824376 21.5153485,15.406251 18.4607029,18.4608191 C15.4060573,21.5153873 12.9822439,25.1345473 11.1892626,29.3182993 C9.39628143,33.5020512 8.49979082,37.8959515 8.49979082,42.5 C8.49979082,47.1040485 9.39628143,51.4979488 11.1892626,55.6817007 C12.9822439,59.8654527 15.4060573,63.4846127 18.4607029,66.5391809 C21.5153485,69.593749 25.1345086,72.0175624 29.3181831,73.8106211 C33.5018576,75.6036798 37.8957578,76.5001704 42.4998838,76.500093 C47.1040098,76.5000155 51.49791,75.6035249 55.6815845,73.8106211 C59.865259,72.0177174 63.4844191,69.593904 66.5390647,66.5391809 C69.5937103,63.4844578 72.0175237,59.8652977 73.8105049,55.6817007 C75.6034861,51.4981037 76.4999768,47.1042035 76.4999768,42.5 L76.4999768,42.5 Z M127.5,42.5 C127.5,37.8957965 126.603509,33.5018963 124.810528,29.3182993 C123.017547,25.1347023 120.593734,21.5155422 117.539088,18.4608191 C114.484442,15.406096 110.865282,12.9822826 106.681608,11.1893789 C102.497933,9.39647511 98.104033,8.49998451 93.499907,8.49990703 L67.8671243,8.49990703 C73.1353576,12.4843183 77.3078758,17.4426556 80.384679,23.3749187 C83.4614822,29.3071818 84.9998838,35.6821701 84.9998838,42.4998838 C84.9998838,49.3175974 83.4614822,55.6925858 80.384679,61.6248489 C77.3078758,67.557112 73.1353576,72.5154492 67.8671243,76.4998605 L93.499907,76.4998605 C98.1041105,76.4998605 102.498011,75.6033699 106.681608,73.8103887 C110.865205,72.0174075 114.484365,69.5935941 117.539088,66.5389485 C120.593811,63.4843029 123.017624,59.8651428 124.810528,55.6814683 C126.603432,51.4977938 127.499923,47.1038936 127.5,42.4997676 L127.5,42.5 Z M136.000023,42.5 C136.000023,48.255235 134.871111,53.7558903 132.613285,59.001966 C130.35546,64.2480417 127.333973,68.7636537 123.548825,72.5488018 C119.763677,76.3339499 115.248065,79.3554367 110.001989,81.613262 C104.755914,83.8710873 99.2552582,85 93.5000232,85 L42.5,85 C36.744765,85 31.2441097,83.8710873 25.998034,81.613262 C20.7519583,79.3554367 16.2363463,76.3339499 12.4511982,72.5488018 C8.66605006,68.7636537 5.64456333,64.2480417 3.386738,59.001966 C1.12891267,53.7558903 0,48.255235 0,42.5 C0,36.744765 1.12891267,31.2441097 3.386738,25.998034 C5.64456333,20.7519583 8.66605006,16.2363463 12.4511982,12.4511982 C16.2363463,8.66605006 20.7519583,5.64456333 25.998034,3.386738 C31.2441097,1.12891267 36.744765,0 42.5,0 L93.5000232,0 C99.2552582,0 104.755914,1.12891267 110.001989,3.386738 C115.248065,5.64456333 119.763677,8.66605006 123.548825,12.4511982 C127.333973,16.2363463 130.35546,20.7519583 132.613285,25.998034 C134.871111,31.2441097 136.000023,36.744765 136.000023,42.5 L136.000023,42.5 Z"/>
</svg>
