<svg xmlns="http://www.w3.org/2000/svg" width="15" height="17" viewBox="0 0 15 17">
  <path fill="#000000"
        d="M3.18501171,7.91137939 L7.19437939,7.91137939 L7.19437939,11.9207471 L3.18501171,11.9207471 L3.18501171,7.91137939 Z M12.7775176,15.1057588 L12.7775176,6.3376089 L1.61124122,6.3376089 L1.61124122,15.1057588 L12.7775176,15.1057588 Z M12.7775176,2.32824122 C13.2021858,2.32824122 13.5768931,2.49061436 13.9016393,2.81536066 C14.2263856,3.14010695 14.3887588,3.51481421 14.3887588,3.93948244 L14.3887588,15.1057588 C14.3887588,15.530427 14.2263856,15.9051343 13.9016393,16.2298806 C13.5768931,16.5546269 13.2021858,16.717 12.7775176,16.717 L1.61124122,16.717 C1.16159251,16.717 0.780640125,16.5546269 0.468384075,16.2298806 C0.156128025,15.9051343 0,15.530427 0,15.1057588 L0,3.93948244 C0,3.51481421 0.156128025,3.14010695 0.468384075,2.81536066 C0.780640125,2.49061436 1.16159251,2.32824122 1.61124122,2.32824122 L2.39812646,2.32824122 L2.39812646,0.717 L4.00936768,0.717 L4.00936768,2.32824122 L10.3793911,2.32824122 L10.3793911,0.717 L11.9906323,0.717 L11.9906323,2.32824122 L12.7775176,2.32824122 L12.7775176,2.32824122 Z"/>
</svg>
