<svg xmlns="http://www.w3.org/2000/svg" width="16" height="17" viewBox="0 0 16 17">
  <path fill="#000000"
        d="M2.343032,14.0376164 C-0.781010667,10.9135738 -0.781010667,5.84810592 2.343032,2.724032 C5.46807467,-0.400010667 10.5325738,-0.400010667 13.6575852,2.724032 C16.7816279,5.84810592 16.7816279,10.9135738 13.6575852,14.0376164 C10.5325738,17.1621279 5.46807467,17.1621279 2.343032,14.0376164 L2.343032,14.0376164 Z M12.2435004,4.13811678 C9.89973403,1.7948504 6.10088315,1.7948504 3.75808552,4.13811678 C1.41431915,6.48138315 1.41431915,10.2802653 3.75808552,12.6235317 C6.10088315,14.9668293 9.89973403,14.9668293 12.2435004,12.6235317 C14.5863293,10.280234 14.5863293,6.48138315 12.2435004,4.13811678 L12.2435004,4.13811678 Z M5.87919706,11.9165049 L4.46511228,10.5019514 L6.58622382,8.38080859 L4.46511228,6.25969706 L5.87919706,4.84511229 L8.00030859,6.96672382 L10.1214514,4.84511229 L11.5355049,6.25969706 L9.41439337,8.38080859 L11.5355049,10.5019514 L10.1214514,11.9165049 L8.00030859,9.79489337 L5.87919706,11.9165049 Z"/>
</svg>
